<svg width="77" height="77" viewBox="0 0 77 77" fill="none" xmlns="http://www.w3.org/2000/svg">
<path d="M73.7917 60.9583C73.7917 62.6601 73.1156 64.2922 71.9123 65.4956C70.7089 66.699 69.0768 67.375 67.375 67.375H9.62499C7.92319 67.375 6.29108 66.699 5.08773 65.4956C3.88437 64.2922 3.20833 62.6601 3.20833 60.9583V25.6667C3.20833 23.9649 3.88437 22.3328 5.08773 21.1294C6.29108 19.926 7.92319 19.25 9.62499 19.25H22.4583L28.875 9.625H48.125L54.5417 19.25H67.375C69.0768 19.25 70.7089 19.926 71.9123 21.1294C73.1156 22.3328 73.7917 23.9649 73.7917 25.6667V60.9583Z" stroke="#2671F4" stroke-width="4" stroke-linecap="round" stroke-linejoin="round"/>
<path d="M38.5 54.5417C45.5876 54.5417 51.3333 48.796 51.3333 41.7083C51.3333 34.6207 45.5876 28.875 38.5 28.875C31.4123 28.875 25.6667 34.6207 25.6667 41.7083C25.6667 48.796 31.4123 54.5417 38.5 54.5417Z" stroke="#2671F4" stroke-width="4" stroke-linecap="round" stroke-linejoin="round"/>
</svg>
